PathFileType	4	(x/y/z)	TRC_MarkerData\Passive\Passive_Pref0004.trc
DataRate	CameraRate	NumFrames	NumMarkers	Units	OrigDataRate	OrigDataStartFrame	OrigNumFrames
240	240	5	49	mm	240	130	259
Frame#	Time	R_AC			L_AC			HEAD			STERN			L_IC			R_IC			L_ASIS			R_ASIS			L_GT			R_GT			L_PSIS			R_PSIS			SACRAL			L_LAT_KNEE			L_MED_KNEE			R_LAT_KNEE			R_MED_KNEE			L_LAT_ANK			L_MED_ANK			R_LAT_ANK			R_MED_ANK			L_THIGH_PROX_POST			L_THIGH_PROX_ANT			L_THIGH_DIST_ANT			L_THIGH_DIST_POST			R_THIGH_PROX_POST			R_THIGH_PROX_ANT			R_THIGH_DIST_ANT			R_THIGH_DIST_POST			L_SHANK_PROX_POST			L_SHANK_PROX_ANT			L_SHANK_DIST_ANT			L_SHANK_DIST_POST			R_SHANK_PROX_POST			R_SHANK_PROX_ANT			R_SHANK_DIST_ANT			R_SHANK_DIST_POST			L_HEEL_LAT			L_HEEL_SUP			L_HEEL_MED			R_HEEL_LAT			R_HEEL_SUP			R_HEEL_MED			L_1ST_MET			L_5TH_MET			L_TOE			R_1ST_MET			R_5TH_MET			R_TOE			
		X1	Y1	Z1	X2	Y2	Z2	X3	Y3	Z3	X4	Y4	Z4	X5	Y5	Z5	X6	Y6	Z6	X7	Y7	Z7	X8	Y8	Z8	X9	Y9	Z9	X10	Y10	Z10	X11	Y11	Z11	X12	Y12	Z12	X13	Y13	Z13	X14	Y14	Z14	X15	Y15	Z15	X16	Y16	Z16	X17	Y17	Z17	X18	Y18	Z18	X19	Y19	Z19	X20	Y20	Z20	X21	Y21	Z21	X22	Y22	Z22	X23	Y23	Z23	X24	Y24	Z24	X25	Y25	Z25	X26	Y26	Z26	X27	Y27	Z27	X28	Y28	Z28	X29	Y29	Z29	X30	Y30	Z30	X31	Y31	Z31	X32	Y32	Z32	X33	Y33	Z33	X34	Y34	Z34	X35	Y35	Z35	X36	Y36	Z36	X37	Y37	Z37	X38	Y38	Z38	X39	Y39	Z39	X40	Y40	Z40	X41	Y41	Z41	X42	Y42	Z42	X43	Y43	Z43	X44	Y44	Z44	X45	Y45	Z45	X46	Y46	Z46	X47	Y47	Z47	X48	Y48	Z48	X49	Y49	Z49	

130	0.53958	-45.27	1476.7	427.12	-5.6461	1494.6	79.735	-50.018	1771.9	254.65	11.605	1428.7	251.4	-79.495	1051.8	97.347	-39.455	1086.2	420.77	-15.626	973.58	115.3	35.811	998.83	386.74	-123.53	897.82	80.885	-18.105	928.59	457.73	-184.32	1039	229.45	-170.64	1051.9	320.44	-187.97	1012.5	279.04	-207.27	507.28	137.38	-237.99	516.04	271.29	101.65	533.51	401.53	84.052	541.01	268.66	-415.11	141.72	158.73	-413.97	140.82	230.11	215.08	114.2	367.72	222.5	144.34	280.62	-168.6	740.4	112.89	-108.38	721.7	118.28	-122.16	650.24	133.81	-185.65	667.7	126.29	2.2291	709.46	432.77	64.382	737.95	436.42	89.244	668.71	422.42	27.957	640.63	416.21	-259.97	437.93	140.12	-216.45	428.5	166.37	-251.61	381.14	171.63	-307.68	396.92	161.54	87.231	355.53	394.73	151.54	377.87	403.77	172.97	305.48	392.45	106.45	284.79	379.55	-518.68	103.56	165.15	-514.63	131.08	198.51	-517.78	100.49	231.16	183.2	28.54	331.38	170.38	56.185	299.32	196.65	42.708	266.81	-323.61	52.195	241	-354.59	40.287	135.62	-261.73	48.512	208.48	375.07	136.55	299.27	344.92	95.677	397.79	414.94	156.7	356.78
131	0.54377	-38.892	1475.2	427.84	0.80129	1493.2	80.473	-43.927	1770.5	255.11	18.079	1427.2	252.08	-72.748	1050.3	97.489	-33.003	1084.7	421.1	-8.9236	971.89	115.51	42.42	997.47	387.14	-117.19	896.43	81.089	-11.311	927.46	457.89	-177.57	1037.4	229.59	-164.12	1050.3	320.6	-181.34	1010.9	279.17	-203.16	506.38	137.61	-233.8	515.38	271.55	110.18	532.86	400.79	93.186	540.93	268.11	-414.07	142.56	158.79	-412.9	141.61	230.2	218.26	112.97	367.03	226.1	142.6	279.75	-163.27	739.4	113.08	-103.04	720.36	118.51	-117.22	648.97	134.06	-180.62	666.76	126.57	10.059	708.4	432.4	71.963	737.2	436.19	97.249	668.09	422.02	36.101	639.73	415.69	-256.45	437.47	140.33	-212.98	427.65	166.58	-248.53	380.61	171.82	-304.49	396.85	161.73	93.945	355.29	393.92	158.54	376.84	402.77	179.01	304.2	391.45	112.22	284.34	378.89	-517.92	105.22	165.22	-513.63	132.72	198.6	-517.03	102.15	231.25	184.54	28.523	331.08	172.48	56.352	298.9	198.37	42.049	266.46	-323.49	52.191	241.03	-354.38	40.485	135.66	-261.58	48.314	208.52	378.51	132.06	298.27	347.7	92.228	396.86	418.74	151.77	355.72
132	0.54795	-32.502	1473.6	428.57	7.2836	1491.8	81.229	-37.835	1769.1	255.6	24.573	1425.8	252.78	-65.917	1048.8	97.63	-26.578	1083.2	421.45	-2.1646	970.23	115.77	49.016	996.15	387.61	-110.77	895.03	81.287	-4.5719	926.36	458.09	-170.79	1035.8	229.68	-157.6	1048.8	320.71	-174.71	1009.3	279.24	-198.86	505.45	137.87	-229.42	514.69	271.85	118.74	532.29	400.06	102.25	540.9	267.6	-412.94	143.47	158.86	-411.76	142.48	230.3	221.24	111.8	366.4	229.48	140.91	278.93	-157.82	738.38	113.29	-97.58	719.03	118.78	-112.13	647.71	134.35	-175.46	665.81	126.88	17.836	707.37	432.02	79.487	736.48	435.99	105.19	667.49	421.63	44.178	638.86	415.15	-252.75	437	140.56	-209.34	426.78	166.82	-245.3	380.06	172.03	-301.14	396.79	161.96	100.64	355.14	393.17	165.52	375.89	401.78	184.99	302.99	390.47	117.93	283.98	378.3	-517.09	107.02	165.3	-512.53	134.5	198.71	-516.2	103.94	231.36	185.64	28.58	330.83	174.34	56.597	298.56	199.82	41.462	266.16	-323.34	52.203	241.08	-354.14	40.719	135.71	-261.42	48.083	208.57	381.72	127.5	297.24	350.26	88.762	395.92	422.35	146.74	354.61
133	0.55213	-26.1	1472.1	429.33	13.802	1490.5	81.998	-31.742	1767.7	256.1	31.085	1424.4	253.51	-59.005	1047.3	97.77	-20.181	1081.8	421.81	4.6462	968.59	116.07	55.599	994.9	388.13	-104.27	893.62	81.48	2.1119	925.32	458.31	-163.97	1034.3	229.72	-151.08	1047.3	320.78	-168.07	1007.8	279.27	-194.35	504.48	138.17	-224.82	513.97	272.18	127.32	531.79	399.34	111.21	540.93	267.13	-411.71	144.47	158.95	-410.52	143.41	230.41	224.05	110.69	365.82	232.66	139.26	278.16	-152.26	737.35	113.51	-91.985	717.71	119.09	-106.9	646.45	134.69	-170.16	664.83	127.21	25.557	706.38	431.65	86.952	735.78	435.82	113.06	666.91	421.26	52.181	638.04	414.63	-248.86	436.52	140.82	-205.52	425.88	167.09	-241.9	379.51	172.27	-297.6	396.75	162.22	107.31	355.08	392.49	172.49	375.01	400.83	190.93	301.86	389.52	123.6	283.72	377.81	-516.18	108.96	165.38	-511.35	136.42	198.84	-515.3	105.88	231.48	186.54	28.705	330.65	175.99	56.912	298.29	201.04	40.957	265.92	-323.15	52.232	241.15	-353.86	40.993	135.77	-261.25	47.818	208.63	384.71	122.92	296.2	352.64	85.312	394.98	425.77	141.66	353.47
134	0.55631	-19.684	1470.7	430.1	20.356	1489.3	82.779	-25.647	1766.4	256.62	37.615	1423	254.27	-52.019	1045.9	97.909	-13.814	1080.5	422.18	11.503	966.98	116.42	62.165	993.71	388.71	-97.695	892.21	81.667	8.7409	924.32	458.56	-157.12	1032.8	229.71	-144.56	1045.8	320.82	-161.42	1006.4	279.25	-189.61	503.47	138.49	-219.99	513.23	272.54	135.9	531.36	398.64	120.03	541.01	266.69	-410.4	145.55	159.05	-409.19	144.43	230.54	226.72	109.64	365.3	235.65	137.7	277.46	-146.58	736.31	113.76	-86.254	716.4	119.44	-101.51	645.2	135.08	-164.7	663.83	127.58	33.219	705.44	431.29	94.361	735.12	435.68	120.86	666.36	420.93	60.102	637.26	414.11	-244.76	436.03	141.11	-201.5	424.96	167.39	-238.33	378.96	172.53	-293.87	396.71	162.51	113.96	355.11	391.89	179.44	374.23	399.92	196.83	300.82	388.62	129.22	283.55	377.41	-515.18	111.05	165.49	-510.07	138.49	198.99	-514.3	107.98	231.62	187.28	28.891	330.51	177.46	57.289	298.08	202.08	40.538	265.73	-322.91	52.278	241.24	-353.56	41.314	135.85	-261.04	47.512	208.7	387.49	118.38	295.15	354.85	81.91	394.05	429.02	136.57	352.3
